# xmcd
#
# Track frame offsets: 
#        150
#        10738
#        24736
#        35893
#        49108
#        59539
#        73454
#        86172
#        99361
#        113105
#        127696
#        138695
#        149230
#        161241
#        171749
#        182382
#        196144
#        207126
#        220248
#        233680
#
# Disc length: 3303 seconds
#
# Revision: 0
# Processed by: cddbd v1.5.2PL0 Copyright (c) Steve Scherf et al.
# Submitted via: ExactAudioCopy v0.99pb5
#
DISCID=330ce514
DTITLE=Otis Redding  - 100 Hits Legends - 5 CD Boxset - CD 5
DYEAR=1900
DGENRE=
TTITLE0=Love Man
TTITLE1=(Your Love Has Lifted Me) Higher And Higher
TTITLE2=Got To Get Myself Together
TTITLE3=A Lover's Question
TTITLE4=I'm A Changed Man
TTITLE5=the Hucklebuck
TTITLE6=Groovin Time
TTITLE7=The Match Game
TTITLE8=I'm Coming Home To See About You
TTITLE9=Tell The Truth
TTITLE10=Open The Door
TTITLE11=Direct Me
TTITLE12=Look At That Girl
TTITLE13=That's A Good Idea
TTITLE14=Your Feeling Is Mine
TTITLE15=Champagne And Wine
TTITLE16=Nobody's Fault But Mine
TTITLE17=I'll Let Nothing Separate Us
TTITLE18=A Fool For You
TTITLE19=Free Me
EXTD=
EXTT0=
EXTT1=
EXTT2=
EXTT3=
EXTT4=
EXTT5=
EXTT6=
EXTT7=
EXTT8=
EXTT9=
EXTT10=
EXTT11=
EXTT12=
EXTT13=
EXTT14=
EXTT15=
EXTT16=
EXTT17=
EXTT18=
EXTT19=
PLAYORDER=
